<svg width="12" height="11" viewBox="0 0 12 11" fill="none" xmlns="http://www.w3.org/2000/svg">
<path opacity="0.7" d="M11.25 4.8818H2.355L5.0775 1.6118C5.2048 1.45864 5.26605 1.26118 5.24777 1.06286C5.22948 0.864536 5.13316 0.681602 4.98 0.554299C4.82684 0.426995 4.62938 0.365748 4.43106 0.384033C4.23274 0.402318 4.0498 0.498636 3.9225 0.651799L0.1725 5.1518C0.147271 5.18759 0.124709 5.22519 0.105 5.2643C0.105 5.3018 0.105 5.3243 0.0525001 5.3618C0.0185052 5.44779 0.000705841 5.53933 0 5.6318C0.000705841 5.72427 0.0185052 5.8158 0.0525001 5.9018C0.0525001 5.9393 0.0524999 5.9618 0.105 5.9993C0.124709 6.0384 0.147271 6.07601 0.1725 6.1118L3.9225 10.6118C3.99302 10.6965 4.08132 10.7645 4.18113 10.8112C4.28095 10.8579 4.38982 10.882 4.5 10.8818C4.67524 10.8821 4.84507 10.8211 4.98 10.7093C5.05594 10.6463 5.11872 10.569 5.16473 10.4818C5.21075 10.3945 5.2391 10.299 5.24815 10.2008C5.25721 10.1025 5.2468 10.0035 5.21751 9.90929C5.18823 9.81509 5.14065 9.72758 5.0775 9.6518L2.355 6.3818H11.25C11.4489 6.3818 11.6397 6.30278 11.7803 6.16213C11.921 6.02148 12 5.83071 12 5.6318C12 5.43289 11.921 5.24212 11.7803 5.10147C11.6397 4.96082 11.4489 4.8818 11.25 4.8818Z" fill="#2A2A64"/>
</svg>
