<svg width="20" height="19" viewBox="0 0 20 19" fill="none" xmlns="http://www.w3.org/2000/svg">
<path d="M13.6292 12.8905L14.0852 12.4375L13.0262 11.3735L12.5722 11.8265L13.6292 12.8905ZM15.6142 12.2475L17.5252 13.2865L18.2402 11.9685L16.3302 10.9305L15.6142 12.2475ZM17.8922 15.3505L16.4722 16.7635L17.5292 17.8265L18.9492 16.4145L17.8922 15.3505ZM15.6062 17.2175C14.1562 17.3535 10.4062 17.2325 6.34417 13.1945L5.28617 14.2575C9.71817 18.6645 13.9372 18.8805 15.7462 18.7115L15.6062 17.2175ZM6.34417 13.1945C2.47317 9.34447 1.83117 6.10747 1.75117 4.70247L0.253173 4.78747C0.353173 6.55547 1.14817 10.1435 5.28617 14.2575L6.34417 13.1945ZM7.71917 7.01447L8.00617 6.72847L6.95017 5.66547L6.66317 5.95047L7.71917 7.01447ZM8.23417 3.09347L6.97417 1.40947L5.77317 2.30947L7.03317 3.99247L8.23417 3.09347ZM2.73317 1.04247L1.16317 2.60247L2.22117 3.66647L3.79017 2.10647L2.73317 1.04247ZM7.19117 6.48247C6.66117 5.95047 6.66117 5.95047 6.66117 5.95247H6.65917L6.65617 5.95647C6.60896 6.00466 6.56643 6.05723 6.52917 6.11347C6.47517 6.19347 6.41617 6.29847 6.36617 6.43147C6.2444 6.77479 6.21408 7.14388 6.27817 7.50247C6.41217 8.36747 7.00817 9.51047 8.53417 11.0285L9.59217 9.96447C8.16317 8.54447 7.82317 7.68047 7.76017 7.27247C7.73017 7.07847 7.76117 6.98247 7.77017 6.96047C7.77517 6.94647 7.77717 6.94547 7.77017 6.95447C7.76135 6.96834 7.75131 6.98139 7.74017 6.99347L7.73017 7.00347C7.72694 7.00658 7.72361 7.00958 7.72017 7.01247L7.19117 6.48247ZM8.53417 11.0285C10.0612 12.5465 11.2102 13.1385 12.0762 13.2705C12.5192 13.3385 12.8762 13.2845 13.1472 13.1835C13.2987 13.1274 13.4405 13.0477 13.5672 12.9475C13.5844 12.9331 13.6011 12.9181 13.6172 12.9025L13.6242 12.8965L13.6272 12.8935L13.6282 12.8915C13.6282 12.8915 13.6292 12.8905 13.1002 12.3585C12.5702 11.8265 12.5732 11.8255 12.5732 11.8255L12.5752 11.8235L12.5772 11.8215L12.5832 11.8165L12.5932 11.8065C12.6052 11.7957 12.6179 11.7857 12.6312 11.7765C12.6412 11.7695 12.6382 11.7725 12.6242 11.7785C12.5992 11.7875 12.5012 11.8185 12.3042 11.7885C11.8902 11.7245 11.0202 11.3845 9.59217 9.96447L8.53417 11.0285ZM6.97417 1.40847C5.95417 0.0484716 3.95017 -0.167528 2.73317 1.04247L3.79017 2.10647C4.32217 1.57747 5.26617 1.63247 5.77317 2.30947L6.97417 1.40847ZM1.75217 4.70347C1.73217 4.35747 1.89117 3.99547 2.22117 3.66747L1.16217 2.60347C0.625174 3.13747 0.202173 3.89347 0.253173 4.78747L1.75217 4.70347ZM16.4722 16.7635C16.1982 17.0375 15.9022 17.1915 15.6072 17.2185L15.7462 18.7115C16.4812 18.6425 17.0822 18.2725 17.5302 17.8275L16.4722 16.7635ZM8.00617 6.72847C8.99117 5.74947 9.06417 4.20247 8.23517 3.09447L7.03417 3.99347C7.43717 4.53247 7.37717 5.23947 6.94917 5.66647L8.00617 6.72847ZM17.5262 13.2875C18.3432 13.7315 18.4702 14.7775 17.8932 15.3515L18.9512 16.4145C20.2912 15.0815 19.8782 12.8585 18.2412 11.9695L17.5262 13.2875ZM14.0852 12.4385C14.4692 12.0565 15.0872 11.9625 15.6152 12.2485L16.3312 10.9315C15.2472 10.3415 13.9032 10.5045 13.0272 11.3745L14.0852 12.4385Z" fill="black"/>
</svg>
