<svg width="22" height="18" viewBox="0 0 22 18" fill="none" xmlns="http://www.w3.org/2000/svg">
<path d="M1 8.5C1 5.213 1 3.569 1.908 2.462C2.07409 2.25965 2.25965 2.07409 2.462 1.908C3.57 1 5.212 1 8.5 1C11.787 1 13.431 1 14.538 1.908C14.7404 2.07409 14.9259 2.25965 15.092 2.462C16 3.57 16 5.212 16 8.5V9.5C16 12.787 16 14.431 15.092 15.538C14.9259 15.7403 14.7403 15.9259 14.538 16.092C13.43 17 11.788 17 8.5 17C5.213 17 3.569 17 2.462 16.092C2.25965 15.9259 2.07409 15.7404 1.908 15.538C1 14.43 1 12.788 1 9.5V8.5ZM16 6.5L16.658 6.171C18.604 5.198 19.578 4.711 20.288 5.151C21 5.591 21 6.679 21 8.854V9.146C21 11.322 21 12.409 20.289 12.849C19.577 13.289 18.604 12.802 16.659 11.829L16 11.5V6.5Z" stroke="black" stroke-width="1.5"/>
</svg>
