<svg width="16" height="14" viewBox="0 0 16 14" fill="none" xmlns="http://www.w3.org/2000/svg">
<path d="M6.3207 8.77574C5.88945 8.34524 5.62695 7.76024 5.62695 7.10399C5.62695 5.78924 6.68595 4.72949 7.99995 4.72949C8.6502 4.72949 9.2487 4.99274 9.67245 5.42324" stroke="#ADA4A5" stroke-width="1.2" stroke-linecap="round" stroke-linejoin="round"/>
<path d="M10.3285 7.52441C10.1545 8.49191 9.39253 9.25541 8.42578 9.43091" stroke="#ADA4A5" stroke-width="1.2" stroke-linecap="round" stroke-linejoin="round"/>
<path d="M3.99125 11.1045C2.801 10.17 1.793 8.80498 1.0625 7.10323C1.8005 5.39398 2.81525 4.02148 4.013 3.07948C5.20325 2.13748 6.5765 1.62598 8 1.62598C9.43175 1.62598 10.8043 2.14498 12.002 3.09373" stroke="#ADA4A5" stroke-width="1.2" stroke-linecap="round" stroke-linejoin="round"/>
<path d="M13.5856 4.74316C14.1016 5.42866 14.5553 6.21991 14.9371 7.10266C13.4618 10.5204 10.8548 12.5792 7.99959 12.5792C7.35234 12.5792 6.71409 12.4742 6.10059 12.2694" stroke="#ADA4A5" stroke-width="1.2" stroke-linecap="round" stroke-linejoin="round"/>
<path d="M13.9155 1.1875L2.08496 13.018" stroke="#ADA4A5" stroke-width="1.2" stroke-linecap="round" stroke-linejoin="round"/>
</svg>
