<svg width="97" height="88" viewBox="0 0 97 88" fill="none" xmlns="http://www.w3.org/2000/svg">
<path d="M45.5684 16.8265C41.773 13.3741 36.771 11.2284 31.4215 10.7581C26.072 10.2877 20.7089 11.522 16.2534 14.2489C11.798 16.9758 8.52825 21.0252 7.00591 25.7014C5.48357 30.3776 5.80364 35.3888 7.91114 39.8742H23.3129L29.7907 29.5892C30.4711 28.5086 31.462 27.6157 32.6578 27.0059C33.8537 26.3961 35.2096 26.0922 36.5808 26.1266C37.9521 26.161 39.2874 26.5325 40.4442 27.2014C41.601 27.8703 42.536 28.8116 43.1494 29.9247L49.6969 41.8102L54.4924 35.8317C55.1025 35.0709 55.8782 34.4317 56.7716 33.9538C57.665 33.476 58.657 33.1695 59.6862 33.0535C60.7154 32.9375 61.7599 33.0144 62.7551 33.2794C63.7502 33.5444 64.6748 33.9919 65.4715 34.5942L72.4586 39.8742H89.285C91.2513 35.35 91.4404 30.3495 89.8205 25.7136C88.2005 21.0778 84.8703 17.0894 80.39 14.4192C75.9097 11.749 70.5525 10.56 65.2194 11.052C59.8863 11.544 54.9026 13.687 51.1065 17.1207L48.4996 19.4857L45.5714 16.8265H45.5684Z" fill="#585CE5"/>
<path d="M46.2873 78.8815L20.1943 53.6255H27.7149C29.0506 53.6251 30.3625 53.3044 31.5177 52.6959C32.6728 52.0874 33.6301 51.2127 34.2927 50.1605L35.9296 47.5645L41.7192 58.075C42.301 59.1314 43.173 60.034 44.251 60.6959C45.3291 61.3577 46.5768 61.7565 47.8741 61.8538C49.1714 61.9511 50.4744 61.7435 51.6576 61.2512C52.8408 60.7589 53.8643 59.9984 54.6293 59.043L61.9953 49.858L64.8659 52.0305C66.228 53.0609 67.9453 53.6254 69.7189 53.6255H77.2L50.6948 78.898C50.4102 79.1691 50.0676 79.3846 49.688 79.5313C49.3084 79.6781 48.8998 79.753 48.4871 79.7515C48.0745 79.7499 47.6666 79.672 47.2883 79.5224C46.91 79.3728 46.5694 79.1547 46.2873 78.8815V78.8815Z" fill="#585CE5"/>
<path d="M39.0846 31.7714C38.8419 31.3305 38.473 30.9569 38.0166 30.6896C37.5602 30.4223 37.033 30.2712 36.4902 30.2521C35.9474 30.233 35.4089 30.3465 34.931 30.5809C34.4531 30.8153 34.0535 31.1619 33.7738 31.5844L25.5652 44.0007H8.08398C7.28005 44.0007 6.50904 44.2904 5.94057 44.8061C5.3721 45.3219 5.05273 46.0213 5.05273 46.7507C5.05273 47.48 5.3721 48.1795 5.94057 48.6952C6.50904 49.211 7.28005 49.5007 8.08398 49.5007H27.2809C27.8039 49.5006 28.3181 49.3777 28.7733 49.144C29.2285 48.9103 29.6093 48.5737 29.8787 48.1669L36.1321 38.7097L45.7897 56.2299C46.0225 56.6522 46.3712 57.0129 46.8022 57.2775C47.2332 57.542 47.732 57.7015 48.2507 57.7404C48.7693 57.7794 49.2902 57.6966 49.7633 57.4999C50.2364 57.3033 50.6458 56.9994 50.9519 56.6177L61.1703 43.8687L67.7784 48.8627C68.3229 49.2746 69.0094 49.5004 69.7184 49.5007H87.9059C88.7098 49.5007 89.4808 49.211 90.0493 48.6952C90.6178 48.1795 90.9371 47.48 90.9371 46.7507C90.9371 46.0213 90.6178 45.3219 90.0493 44.8061C89.4808 44.2904 88.7098 44.0007 87.9059 44.0007H70.8157L62.5646 37.7637C62.2459 37.5227 61.876 37.3436 61.4779 37.2375C61.0798 37.1315 60.6619 37.1007 60.2502 37.1471C59.8384 37.1935 59.4416 37.3161 59.0841 37.5073C58.7267 37.6985 58.4164 37.9543 58.1724 38.2587L48.9816 49.7262L39.0846 31.7687V31.7714Z" fill="#585CE5"/>
</svg>
