<svg width="20" height="21" viewBox="0 0 20 21" fill="none" xmlns="http://www.w3.org/2000/svg">
<path d="M18.8358 15.3075L15.7609 13.5322C15.1402 13.1739 14.3613 13.6224 14.3613 14.3403V15.4179H5.90066C3.41641 15.4179 1.39531 13.3968 1.39531 10.9125C1.39531 10.5272 1.08293 10.2148 0.697656 10.2148C0.312344 10.2148 0 10.5272 0 10.9125C0 14.1662 2.64707 16.8132 5.9007 16.8132H14.3613V17.8908C14.3613 18.6075 15.1391 19.0579 15.7609 18.6989L18.8357 16.9236C19.4564 16.5653 19.4575 15.6665 18.8358 15.3075Z" fill="#7B6F72"/>
<path d="M14.0988 4.56261H5.63812V3.48495C5.63812 2.76827 4.86026 2.31792 4.23854 2.67691L1.16366 4.45218C0.542998 4.8105 0.541904 5.70929 1.16366 6.06827L4.23854 7.84359C4.85925 8.20195 5.63812 7.75339 5.63812 7.03554V5.95792H14.0988C16.5831 5.95792 18.6041 7.97898 18.6041 10.4633C18.6041 10.8486 18.9165 11.1609 19.3018 11.1609C19.6871 11.1609 19.9994 10.8485 19.9994 10.4633C19.9995 7.20964 17.3524 4.56261 14.0988 4.56261Z" fill="#7B6F72"/>
</svg>
