<svg width="375" height="407" viewBox="0 0 375 407" fill="none" xmlns="http://www.w3.org/2000/svg">
<path d="M375 237.452C375 237.452 302.933 400.445 191.1 406.05C79.2667 411.656 0 351.063 0 351.063V-36.4492H375V237.452Z" fill="url(#paint0_linear_28_9909)"/>
<path d="M141.301 316.963C121.101 367.779 126.867 402.113 126.867 402.113C146.034 405.616 165.501 407.051 184.967 406.417C209.634 405.616 232.434 397.942 253.101 386.297C253.801 358.07 244.167 332.878 237.301 318.564C193.134 339.952 154.601 323.97 141.301 316.963Z" fill="#AB8DA8"/>
<path d="M147.234 303.283C145.067 307.954 143.067 312.525 141.334 316.963C154.601 323.97 193.167 339.985 237.301 318.564C233.534 310.723 230.567 306.152 230.567 306.152C230.567 306.152 174.401 245.026 147.234 303.283Z" fill="#FEF9EF"/>
<path d="M191.101 406.05V388.466L206.367 377.855L196.267 391.969L197.301 405.549L191.101 406.05Z" fill="#543753"/>
<path d="M118.534 193.176C118.534 193.176 117 193.743 116.734 209.292C116.467 224.84 115.3 255.77 115.3 255.77C115.3 255.77 101.2 242.658 100.167 236.051C99.1337 229.445 99.567 223.505 98.867 219.869C98.167 216.232 98.0337 206.289 98.3337 204.42C98.6337 202.552 93.9004 202.251 92.6004 205.021C91.3004 207.79 90.867 216.999 90.2004 217.333C89.5337 217.666 81.9004 218.367 81.167 220.035C80.4337 221.704 81.7337 224.74 80.6004 227.276C79.467 229.812 80.7004 231.613 80.6004 233.549C80.5004 235.484 80.0337 236.218 80.9004 239.154C81.767 242.09 81.9337 244.559 83.3337 245.026L84.7337 245.494L89.6337 247.162C89.6337 247.162 110.634 294.508 121.034 295.543C131.434 296.577 136.867 288.302 138.167 281.629C139.467 274.956 146.434 234.983 146.434 234.983L118.534 193.176Z" fill="#FFEDE5"/>
<path d="M130.334 226.074L141.867 261.142L146.434 234.95L130.334 226.074Z" fill="#E0855C"/>
<path d="M115.301 255.737C115.301 255.737 125.101 263.978 128.334 270.751C128.334 270.751 123.101 256.871 115.501 250.432L115.301 255.737Z" fill="#E0855C"/>
<path d="M86.3672 244.826C86.3672 244.826 96.6005 244.559 97.4338 243.925C98.2672 243.291 98.3005 240.288 97.8672 239.921C97.8672 239.921 98.7005 235.55 97.9338 234.416C97.9338 234.416 98.2338 231.179 97.9005 229.277C97.9005 229.277 99.6005 239.02 99.4005 240.555C99.2005 242.09 100.001 244.692 95.4005 245.46C90.8005 246.227 86.3672 244.826 86.3672 244.826Z" fill="#E0855C"/>
<path d="M97.9337 234.483C97.9004 234.483 97.9004 234.483 97.8671 234.483C97.7004 234.449 97.5671 234.282 97.6004 234.116C98.0337 231.413 97.3337 226.174 97.3337 226.141V226.074V226.008C97.6337 224.84 98.2671 221.537 97.4004 220.536C96.6337 219.635 89.2337 219.401 84.7337 219.468C84.5671 219.468 84.4004 219.334 84.4004 219.134C84.4004 218.934 84.5337 218.801 84.7337 218.801C86.7337 218.767 96.7004 218.701 97.9004 220.102C99.1004 221.503 98.1671 225.407 98.0004 226.108C98.0671 226.742 98.6671 231.546 98.2337 234.216C98.2337 234.383 98.0671 234.483 97.9337 234.483Z" fill="#472938"/>
<path d="M97.6673 226.408C97.6339 226.408 97.6673 226.408 97.6673 226.408L86.9339 225.908C86.7339 225.908 86.6006 225.741 86.6006 225.574C86.6006 225.374 86.7339 225.24 86.9339 225.24L97.6673 225.741C97.8673 225.741 98.0006 225.908 98.0006 226.074C98.0006 226.275 97.8339 226.408 97.6673 226.408Z" fill="#472938"/>
<path d="M97.8336 240.255H87.2669C87.0669 240.255 86.9336 240.122 86.9336 239.922C86.9336 239.721 87.0669 239.588 87.2669 239.588H97.8336C98.0336 239.588 98.1669 239.721 98.1669 239.922C98.1669 240.122 98.0336 240.255 97.8336 240.255Z" fill="#472938"/>
<path d="M98.034 232.982H85.9007C85.7007 232.982 85.5674 232.848 85.5674 232.648C85.5674 232.448 85.7007 232.314 85.9007 232.314H98.034C98.234 232.314 98.3674 232.448 98.3674 232.648C98.3674 232.848 98.234 232.982 98.034 232.982Z" fill="#472938"/>
<path d="M278.966 176.927L299.166 176.159C300.033 176.126 300.766 176.793 300.799 177.661L302.366 219.368C302.399 220.236 301.733 220.97 300.866 221.003L280.666 221.771C279.799 221.804 279.066 221.137 279.033 220.269L277.466 178.562C277.433 177.661 278.099 176.96 278.966 176.927Z" fill="#3B2645"/>
<path d="M280.6 220.403C280.466 220.403 280.366 220.303 280.366 220.169L278.8 178.462C278.8 178.395 278.833 178.328 278.866 178.295C278.9 178.262 278.966 178.228 279.033 178.228L299.233 177.461C299.366 177.461 299.466 177.561 299.466 177.695L301.033 219.402C301.033 219.535 300.933 219.636 300.8 219.636L280.6 220.403Z" fill="#FEF9EF"/>
<path d="M216.333 171.755C216.333 171.755 237.533 173.89 241.466 191.107C245.4 208.324 252.666 249.231 252.666 249.231C252.666 249.231 268.133 224.44 269.366 220.503C270.6 216.565 274.6 203.252 274.466 198.715C274.333 194.177 278.766 197.413 278.766 202.819L279.433 220.703C279.466 221.303 279.966 221.77 280.566 221.737H280.6L301.066 220.202C301.766 220.169 302.266 219.568 302.233 218.868V218.634C302.233 218.634 300.766 215.598 301.2 214.196C301.633 212.795 305.133 212.662 305.533 212.995C305.933 213.329 308.1 217.5 308.033 218.634C307.966 219.769 305.433 223.305 303.766 223.839C302.1 224.373 285.5 228.377 282.1 233.515C278.7 238.654 263.833 283.664 251.766 287.134C239.7 290.604 227.933 257.872 225.166 248.296C222.4 238.72 216.333 171.755 216.333 171.755Z" fill="#FFEDE5"/>
<path d="M221.666 224.84C222.966 235.884 224.266 245.16 225.166 248.263C226.466 252.734 229.733 262.31 234.099 270.852L235.433 207.957L221.666 224.84Z" fill="#E0855C"/>
<path d="M301.666 201.117C301.666 201.117 308.9 204.821 308.766 206.389C308.633 207.957 307.266 210.76 305.866 210.626C304.466 210.493 301.833 209.092 301.1 207.457C300.366 205.822 300 200.583 301.666 201.117Z" fill="#FFEDE5"/>
<path d="M302.033 206.556C302.033 206.556 309.266 210.259 309.133 211.827C308.999 213.396 307.633 216.198 306.233 216.065C304.833 215.931 302.199 214.53 301.466 212.895C300.733 211.26 300.366 206.022 302.033 206.556Z" fill="#FFEDE5"/>
<path d="M302.033 194.51C302.033 194.51 309.266 198.214 309.133 199.782C308.999 201.35 307.633 204.153 306.233 204.02C304.833 203.886 302.199 202.485 301.466 200.85C300.733 199.215 300.366 193.943 302.033 194.51Z" fill="#FFEDE5"/>
<path d="M246.133 262.477C246.066 262.477 246.033 262.477 245.966 262.444C245.8 262.377 245.733 262.143 245.833 262.01L252.366 249.097C252.433 248.931 252.666 248.864 252.8 248.964C252.966 249.031 253.033 249.264 252.933 249.398L246.4 262.31C246.366 262.41 246.266 262.477 246.133 262.477Z" fill="#472938"/>
<path d="M152.5 280.794C152.533 291.638 147.233 303.25 147.233 303.25C147.233 303.25 183.933 323.87 230.533 306.119C230.533 306.119 224.833 291.438 225.567 276.09C187.9 269.083 152.5 280.794 152.5 280.794Z" fill="#FFEDE5"/>
<path d="M118.533 193.175C115.8 197.279 126.333 217.699 136.4 238.352C145.567 217.832 140.2 192.908 137.1 182.197C130 184.933 121.3 188.971 118.533 193.175Z" fill="#FFEDE5"/>
<path d="M225.567 276.123C225.633 274.522 225.8 272.92 226.033 271.319C226.167 270.351 226.333 269.317 226.5 268.216C196.6 260.041 161 269.383 150.967 272.353C151.933 275.656 152.5 278.526 152.5 280.794C152.5 280.794 187.9 269.083 225.567 276.123Z" fill="#FEF9EF"/>
<path d="M136.4 239.454C136.267 239.454 136.167 239.387 136.1 239.253L128.667 223.238C128.6 223.071 128.667 222.871 128.834 222.804C129 222.737 129.2 222.804 129.267 222.971L136.7 238.986C136.767 239.153 136.7 239.353 136.534 239.42C136.5 239.454 136.434 239.454 136.4 239.454Z" fill="#472938"/>
<path d="M193.4 310.157C193.916 310.157 194.333 309.738 194.333 309.222C194.333 308.706 193.916 308.288 193.4 308.288C192.885 308.288 192.467 308.706 192.467 309.222C192.467 309.738 192.885 310.157 193.4 310.157Z" fill="#E0855C"/>
<path d="M233.833 209.925C233.833 209.691 233.833 209.458 233.833 209.257C233.833 209.157 233.833 209.024 233.833 208.924C233.833 208.657 233.833 208.423 233.8 208.156C233.8 208.09 233.8 208.023 233.8 207.923C233.8 207.589 233.766 207.289 233.766 206.989V206.788C233.766 206.555 233.733 206.288 233.733 206.054C233.733 205.954 233.733 205.854 233.7 205.754C233.7 205.554 233.666 205.354 233.666 205.187L233.633 204.853C233.633 204.686 233.6 204.486 233.566 204.319C233.566 204.219 233.533 204.119 233.533 203.986C233.5 203.785 233.5 203.619 233.467 203.418C233.467 203.318 233.433 203.252 233.433 203.151C233.4 202.885 233.367 202.618 233.3 202.351C230.7 186.535 216.3 171.721 216.3 171.721C216.3 171.721 221.9 193.976 223.7 196.578C230.266 206.121 233.933 211.86 233.467 219.467C233.5 219.067 233.533 218.7 233.566 218.3C233.566 218.2 233.566 218.099 233.566 217.999C233.6 217.699 233.6 217.399 233.633 217.132C233.633 217.032 233.633 216.898 233.666 216.798C233.666 216.531 233.7 216.264 233.7 215.964L233.733 215.63C233.733 215.33 233.766 215.063 233.766 214.796C233.766 214.696 233.766 214.629 233.766 214.529C233.8 213.795 233.833 213.061 233.833 212.327C233.833 212.227 233.833 212.16 233.833 212.06C233.833 211.793 233.833 211.526 233.833 211.259V210.926C233.833 210.692 233.833 210.459 233.833 210.225V209.925Z" fill="#FFEDE5"/>
<path d="M223.7 196.612C221.9 194.009 216.334 171.754 216.334 171.754H212.1L147.234 178.694C147.234 178.694 142.667 180.029 137.1 182.164C140.167 192.875 145.567 217.832 136.4 238.319C142.434 250.731 148.267 263.21 150.934 272.352C160.967 269.349 196.567 260.04 226.467 268.215C228.434 255.603 232.234 235.516 233.467 219.501C233.934 211.893 230.267 206.154 223.7 196.612Z" fill="#AB8DA8"/>
<path d="M158.101 254.735C156.501 254.735 154.834 254.535 153.067 254.101C152.901 254.068 152.767 253.868 152.834 253.701C152.867 253.534 153.067 253.401 153.234 253.467C159.567 255.069 164.701 253.234 170.101 251.332C175.234 249.497 180.534 247.628 187.334 248.396C201.067 249.931 223.434 246.227 223.667 246.194C223.867 246.16 224.034 246.294 224.067 246.461C224.101 246.627 223.967 246.828 223.801 246.861C223.567 246.894 201.101 250.631 187.301 249.096C180.667 248.362 175.434 250.198 170.367 251.999C166.301 253.367 162.434 254.735 158.101 254.735Z" fill="#472938"/>
<path d="M209.367 82.8007C209.367 82.8007 226.767 84.5357 221.533 107.692C216.3 130.848 221.467 129.813 226 142.059C230.533 154.304 206.833 146.196 206.833 146.196C206.833 146.196 218.9 164.28 154.767 156.473C101.867 150.033 137.167 122.439 137.167 122.439C137.167 122.439 121.267 124.542 140.3 107.725C153.7 95.8802 160.833 52.3376 209.367 82.8007Z" fill="#3B2645"/>
<path d="M197.833 146.863C197.833 146.863 192.467 165.715 199.833 169.218C205.5 171.921 212.1 171.754 212.1 171.754C212.1 171.754 209.833 221.737 181.833 222.27C153.833 222.804 147.233 178.694 147.233 178.694C147.233 178.694 158.633 174.69 162.033 166.849C165.433 159.008 165.6 148.031 165.6 148.031L197.833 146.863Z" fill="#FFEDE5"/>
<path d="M211.285 132.612C214.138 127.665 214.073 122.28 211.14 120.584C208.206 118.889 203.515 121.525 200.662 126.472C197.808 131.419 197.873 136.804 200.807 138.499C203.74 140.195 208.431 137.559 211.285 132.612Z" fill="#E0855C"/>
<path d="M204.3 132.983C204.2 132.983 204.133 132.95 204.067 132.883C203.933 132.75 203.933 132.55 204.067 132.416L209.1 127.678C209.233 127.545 209.433 127.545 209.567 127.678C209.7 127.812 209.7 128.012 209.567 128.145L204.533 132.883C204.467 132.983 204.4 132.983 204.3 132.983Z" fill="#472938"/>
<path d="M158.838 134.739C162.134 133.958 163.741 128.819 162.428 123.26C161.114 117.701 157.377 113.828 154.081 114.608C150.784 115.389 149.177 120.528 150.491 126.087C151.805 131.646 155.542 135.519 158.838 134.739Z" fill="#FFEDE5"/>
<path d="M196.167 162.946C195.167 156.206 197.834 146.83 197.834 146.83L165.567 148.031C165.567 148.031 165.534 150.467 165.134 153.87C165.134 153.904 181.234 173.423 196.167 162.946Z" fill="#E0855C"/>
<path d="M157.967 127.911C157.867 127.911 157.767 127.845 157.701 127.745L154.501 122.84C154.401 122.673 154.434 122.473 154.601 122.373C154.767 122.273 154.967 122.306 155.067 122.473L158.267 127.378C158.367 127.544 158.334 127.745 158.167 127.845C158.101 127.911 158.034 127.911 157.967 127.911Z" fill="#472938"/>
<path d="M160.1 92.7105C160.1 92.7105 148.633 154.671 175.567 161.111C202.5 167.55 212.1 109.761 211.4 97.7488C210.7 85.737 164.1 82.1001 160.1 92.7105Z" fill="#FFEDE5"/>
<path d="M195.934 121.038C196.8 121.204 197.367 122.039 197.234 122.906L197.067 123.874C196.9 124.741 196.067 125.308 195.2 125.175C194.334 125.008 193.767 124.174 193.9 123.307L194.067 122.339C194.234 121.471 195.067 120.871 195.934 121.038Z" fill="#472938"/>
<path d="M170.833 118.235C171.733 118.235 172.433 118.936 172.433 119.837V120.805C172.433 121.672 171.733 122.406 170.833 122.406C169.967 122.406 169.233 121.705 169.233 120.805V119.837C169.233 118.936 169.933 118.235 170.833 118.235Z" fill="#472938"/>
<path d="M201.8 119.369C201.8 119.369 200.6 117.568 197.133 116.967C193.667 116.366 192.567 116.567 192.533 115.466C192.5 114.364 200.267 112.663 201.8 119.369Z" fill="#472938"/>
<path d="M165.8 114.799C165.8 114.799 167.533 113.498 171 114.065C174.466 114.666 175.433 115.199 175.833 114.165C176.233 113.131 169.466 108.96 165.8 114.799Z" fill="#472938"/>
<path d="M172.4 138.422L186.8 140.057C186.8 140.057 184.566 149.8 178.2 148.665C171.866 147.564 172.4 138.422 172.4 138.422Z" fill="white"/>
<path d="M181.934 136.019C180.934 136.019 179.834 135.752 178.834 135.285C178.667 135.218 178.6 135.018 178.667 134.851C178.734 134.684 178.934 134.618 179.1 134.684C180.567 135.385 182.201 135.552 183.301 135.118C183.767 134.951 184.067 134.684 184.2 134.384C184.634 133.35 184.467 130.147 184.267 126.443L184.2 125.142C183.834 118.302 187.934 117 188.101 116.934C188.267 116.867 188.467 116.967 188.501 117.167C188.567 117.334 188.467 117.534 188.267 117.568C188.101 117.601 184.501 118.802 184.834 125.108L184.901 126.41C185.101 130.347 185.301 133.483 184.767 134.651C184.567 135.118 184.134 135.519 183.501 135.752C183.1 135.952 182.534 136.019 181.934 136.019Z" fill="#472938"/>
<path d="M206.834 127.178C206.834 127.178 209 110.461 201.8 101.319C201.8 101.319 195.7 112.864 185.7 108.86C185.7 108.86 171.967 120.771 157.967 117.301C143.967 113.831 148.934 81.0657 169.234 79.6644C189.534 78.263 230.834 86.4377 206.834 127.178Z" fill="#3B2645"/>
<defs>
<linearGradient id="paint0_linear_28_9909" x1="375" y1="406.417" x2="-125.641" y2="373.613" gradientUnits="userSpaceOnUse">
<stop stop-color="#92A3FD"/>
<stop offset="1" stop-color="#9DCEFF"/>
</linearGradient>
</defs>
</svg>
