<svg width="375" height="423" viewBox="0 0 375 423" fill="none" xmlns="http://www.w3.org/2000/svg">
<g clip-path="url(#clip0_28_9633)">
<path d="M0 119.15C0 119.15 13.8333 76.9897 42.7333 87.9287C83.0333 103.157 186.333 346.709 294.733 346.709C350.3 346.709 375 304.15 375 304.15V-26.4492H0V119.15Z" fill="url(#paint0_linear_28_9633)"/>
<path d="M167.6 147.379C167.6 147.379 170.067 130.588 188.967 130.588C207.867 130.588 217.033 152.067 221.3 164.669C225.567 177.27 236.567 189.14 250.9 196.156C265.233 203.171 276.067 210.719 274.233 226.612C274.233 226.612 304.9 250.552 246.467 254.974C188.033 259.396 159.333 222.722 162.867 203.836C166.4 184.951 143.6 159.349 167.6 147.379Z" fill="#3B2645"/>
<path d="M202.967 187.677C202.967 187.677 200.3 213.479 211.633 215.74C211.633 215.74 216.333 262.056 189.9 262.056C163.467 262.056 166.167 217.136 166.167 217.136C166.167 217.136 177.433 214.177 176.533 189.273C175.633 164.369 203.333 170.354 202.967 187.677Z" fill="#FFEDE5"/>
<path d="M195.1 189.972C197.333 181.493 185.833 179.764 178.1 179.531C177 182.025 176.366 185.25 176.5 189.273C176.666 192.798 176.5 196.355 176.066 199.88C180.466 200.212 192.4 200.179 195.1 189.972Z" fill="#E0855C"/>
<path d="M173.316 182.059C175.701 181.241 176.393 176.974 174.861 172.528C173.329 168.083 170.153 165.142 167.768 165.96C165.383 166.777 164.691 171.044 166.223 175.49C167.756 179.936 170.931 182.877 173.316 182.059Z" fill="#E0855C"/>
<path d="M213.016 175.451C214.548 171.005 213.857 166.738 211.472 165.921C209.086 165.103 205.911 168.044 204.379 172.489C202.847 176.935 203.538 181.202 205.923 182.02C208.308 182.838 211.484 179.897 213.016 175.451Z" fill="#E0855C"/>
<path d="M169.033 151.535C169.033 151.535 167.2 196.056 188.333 196.156C204.767 196.222 209.467 176.24 209.733 153.73C210 131.22 169.3 134.246 169.033 151.535Z" fill="#FFEDE5"/>
<path d="M190 183.122C186.467 183.122 183.367 180.994 183.334 180.961C183.167 180.861 183.134 180.661 183.267 180.495C183.367 180.329 183.567 180.296 183.734 180.429C183.8 180.462 189.8 184.552 194.234 181.06C194.367 180.961 194.6 180.961 194.7 181.127C194.8 181.293 194.8 181.493 194.634 181.592C193.134 182.723 191.534 183.122 190 183.122Z" fill="#472938"/>
<path d="M176.267 164.702C176.267 164.702 179.033 166.464 183.7 165.035C183.7 165.001 179.733 169.058 176.267 164.702Z" fill="#472938"/>
<path d="M202.8 165.067C202.8 165.067 200.033 166.83 195.366 165.4C195.366 165.4 199.333 169.456 202.8 165.067Z" fill="#472938"/>
<path d="M174.667 159.282C174.667 159.282 178.167 155.425 183.267 156.622C185.867 157.22 184.867 154.028 180.167 154.228C175.467 154.427 174.667 159.282 174.667 159.282Z" fill="#472938"/>
<path d="M204.667 159.282C204.667 159.282 201.167 155.425 196.067 156.622C193.467 157.22 194.467 154.028 199.167 154.228C203.867 154.427 204.667 159.282 204.667 159.282Z" fill="#472938"/>
<path d="M189.2 175.674C188.2 175.674 186.067 174.943 185.334 174.211C185.067 173.945 184.967 173.679 185 173.413C185.067 173.014 185.367 171.751 185.8 170.155C186.367 167.861 187.1 165.034 187.334 163.638C187.567 162.308 187.334 160.911 186.7 159.715C186.6 159.548 186.667 159.349 186.834 159.249C187 159.149 187.2 159.216 187.3 159.382C188 160.712 188.267 162.241 188 163.738C187.767 165.167 187.034 168.027 186.467 170.321C186.067 171.851 185.734 173.181 185.7 173.513C185.7 173.546 185.734 173.613 185.834 173.746C186.534 174.444 188.734 175.109 189.367 175.009C190.2 174.876 191.934 174.078 192.534 173.38C192.667 173.247 192.867 173.247 193 173.347C193.134 173.48 193.134 173.679 193.034 173.812C192.3 174.61 190.434 175.508 189.467 175.641C189.334 175.674 189.267 175.674 189.2 175.674Z" fill="#472938"/>
<path d="M169.333 162.94C169.333 162.94 170.666 152.333 173.966 148.443C173.966 148.443 179.5 145.983 188.3 151.203C197.1 156.423 203.266 160.812 211.433 159.515C211.433 159.515 212.2 134.212 191.1 135.576C170 136.939 165.666 147.944 169.333 162.94Z" fill="#3B2645"/>
<path d="M308.767 319.278C308.433 318.746 307.433 319.644 307.433 319.644C307.433 319.644 306.4 318.48 303.6 319.312C300.8 320.143 292.5 327.258 292.5 327.258C288.767 327.192 282.667 330.849 282.667 330.849C282.667 330.849 278.067 328.954 273.9 322.703C269.733 316.452 265.2 313.393 265.2 313.393C265.2 313.393 255.433 274.225 248.833 249.787C242.133 252.613 233.433 263.752 227.233 272.729C227.367 276.952 227.5 279.645 227.5 279.645C227.5 279.645 249.233 337.167 252.033 338.896C254.833 340.625 286.8 344.481 287.133 344.249C287.467 344.016 290.4 344.781 291.6 344.249C292.8 343.717 294.267 344.581 295.733 343.584C297.2 342.586 299.733 344.116 300.767 343.151C301.8 342.187 303.6 342.586 304.8 342.021C306 341.456 312.7 332.013 312.833 330.317C312.967 328.621 309.1 319.81 308.767 319.278Z" fill="#FFEDE5"/>
<path d="M232.833 261.259C232.833 261.259 244.2 280.61 235.2 299.662L227.467 279.579L232.833 261.259Z" fill="#E0855C"/>
<path d="M248.8 249.721C246.434 240.943 244.467 234.06 243.5 231.567C239.834 221.991 233.067 221.559 233.067 221.559C226.4 221.658 226.734 257.302 227.2 272.663C233.4 263.686 242.1 252.58 248.8 249.721Z" fill="#AB8DA8"/>
<path d="M257.801 315.422C257.667 315.422 257.534 315.322 257.467 315.189C257.434 315.023 257.534 314.823 257.701 314.79L264.234 313.061C264.401 313.028 264.601 313.128 264.634 313.294C264.667 313.46 264.567 313.66 264.401 313.693L257.867 315.422C257.867 315.422 257.834 315.422 257.801 315.422Z" fill="#472938"/>
<path d="M290.134 338.065C289.967 338.065 289.801 337.932 289.801 337.732C289.634 333.676 284.834 333.51 284.634 333.51C284.434 333.51 284.301 333.343 284.301 333.177C284.301 332.978 284.467 332.845 284.634 332.845C284.701 332.845 290.234 333.044 290.434 337.699C290.501 337.899 290.334 338.065 290.134 338.065C290.167 338.065 290.167 338.065 290.134 338.065Z" fill="#472938"/>
<path d="M288.667 341.091C288.634 341.091 288.567 341.091 288.534 341.057C288.367 340.991 288.301 340.791 288.367 340.625C288.767 339.761 292.367 331.98 293.867 330.983C295.101 330.151 296.601 330.417 297.201 330.949C297.601 331.282 297.467 331.614 297.434 331.714C297.267 332.08 295.334 336.868 294.367 339.328C294.301 339.495 294.101 339.594 293.934 339.528C293.767 339.461 293.667 339.262 293.734 339.096C293.834 338.796 296.434 332.346 296.801 331.515C296.734 331.448 296.567 331.315 296.234 331.249C295.967 331.182 295.101 331.016 294.234 331.581C293.101 332.346 290.034 338.597 288.934 340.958C288.901 341.024 288.801 341.091 288.667 341.091Z" fill="#472938"/>
<path d="M299.2 338.596C299 338.596 298.867 338.463 298.867 338.264C298.867 338.197 298.867 338.197 299.8 334.906C300.567 332.212 301.8 327.824 301.934 327.125C301.734 326.926 300.8 326.527 300.167 326.726C299.667 326.893 298.134 329.153 297 331.148C296.9 331.315 296.7 331.348 296.534 331.281C296.367 331.182 296.334 330.982 296.4 330.816C297 329.785 299 326.394 299.934 326.061C300.734 325.795 301.767 326.161 302.234 326.494C302.467 326.66 302.6 326.859 302.6 327.026C302.6 327.225 302.134 328.921 300.434 335.039C300 336.601 299.567 338.098 299.534 338.264C299.534 338.463 299.367 338.596 299.2 338.596Z" fill="#472938"/>
<path d="M303.901 337.899C303.867 337.899 303.867 337.899 303.834 337.899C303.667 337.865 303.534 337.666 303.567 337.5C304.734 332.313 306.434 324.399 306.467 323.535C306.334 323.335 305.734 323.003 304.701 323.003C304.134 323.003 302.701 324.898 301.734 326.66C301.634 326.827 301.434 326.893 301.267 326.793C301.101 326.694 301.034 326.494 301.134 326.328C301.667 325.397 303.467 322.338 304.701 322.338C305.867 322.338 306.834 322.737 307.101 323.302C307.167 323.435 307.334 323.801 304.201 337.633C304.201 337.799 304.067 337.899 303.901 337.899Z" fill="#472938"/>
<path d="M306.401 323.335C306.268 323.335 306.134 323.236 306.068 323.103C305.534 321.407 307.101 319.512 307.168 319.445C307.301 319.312 307.501 319.279 307.634 319.412C307.768 319.545 307.801 319.744 307.668 319.877C307.668 319.911 306.268 321.573 306.701 322.936C306.768 323.103 306.668 323.302 306.468 323.368C306.468 323.335 306.434 323.335 306.401 323.335Z" fill="#472938"/>
<path d="M304.633 334.673C304.567 334.673 304.5 334.64 304.467 334.607C304.3 334.507 304.267 334.308 304.367 334.141L307.1 330.018L306.3 325.031C306.267 324.865 306.4 324.665 306.567 324.665C306.733 324.632 306.933 324.765 306.933 324.931L307.8 330.185L304.933 334.54C304.833 334.607 304.733 334.673 304.633 334.673Z" fill="#472938"/>
<path d="M73.4666 324.832C73.7666 324.3 74.7999 325.131 74.7999 325.131C74.7999 325.131 75.7999 323.934 78.6333 324.665C81.4666 325.397 90.0333 332.146 90.0333 332.146C93.7333 331.947 100.033 335.338 100.033 335.338C100.033 335.338 104.567 333.244 108.5 326.827C112.433 320.409 116.833 317.151 116.833 317.151C116.833 317.151 125 277.651 130.633 252.913C137.433 255.473 146.567 266.246 153.133 274.957C153.167 279.18 153.167 281.873 153.167 281.873C153.167 281.873 133.767 340.193 131.033 342.055C128.3 343.917 96.4999 349.004 96.1999 348.804C95.8999 348.605 92.9666 349.469 91.7333 348.971C90.4999 348.472 89.0999 349.436 87.5666 348.472C86.0333 347.508 83.5999 349.137 82.4999 348.239C81.3999 347.341 79.6666 347.774 78.3999 347.275C77.1333 346.776 70.0999 337.599 69.8999 335.904C69.6999 334.208 73.1666 325.364 73.4666 324.832Z" fill="#FFEDE5"/>
<path d="M147.033 263.852C147.033 263.852 136.467 283.668 146.2 302.321L153.1 281.939L147.033 263.852Z" fill="#E0855C"/>
<path d="M130.6 252.946C132.6 244.102 134.3 237.152 135.166 234.592C138.433 224.883 145.2 224.152 145.2 224.152C151.866 223.986 152.933 259.629 153.1 274.99C146.533 266.312 137.4 255.539 130.6 252.946Z" fill="#AB8DA8"/>
<path d="M124.233 318.946C124.2 318.946 124.2 318.946 124.167 318.946L117.567 317.483C117.4 317.449 117.267 317.25 117.3 317.084C117.333 316.917 117.533 316.784 117.7 316.818L124.3 318.281C124.467 318.314 124.6 318.513 124.567 318.68C124.533 318.846 124.367 318.946 124.233 318.946Z" fill="#472938"/>
<path d="M92.8001 342.852C92.6001 342.852 92.4668 342.686 92.4668 342.52C92.5001 337.832 98.0001 337.433 98.0668 337.433C98.2335 337.433 98.4001 337.566 98.4335 337.732C98.4335 337.931 98.3001 338.064 98.1335 338.098C97.9335 338.098 93.1668 338.463 93.1668 342.52C93.1335 342.719 93.0001 342.852 92.8001 342.852Z" fill="#472938"/>
<path d="M94.4333 345.812C94.2999 345.812 94.1999 345.745 94.1333 345.646C92.9666 343.351 89.6333 337.2 88.4666 336.469C87.5666 335.937 86.6999 336.136 86.4333 336.203C86.1333 336.303 85.9666 336.436 85.9 336.502C86.3 337.333 89.1333 343.684 89.2666 343.983C89.3333 344.149 89.2666 344.349 89.0999 344.415C88.9333 344.482 88.7333 344.415 88.6666 344.249C87.5666 341.822 85.4666 337.101 85.3 336.735C85.1666 336.502 85.2666 336.203 85.5 335.97C86.0666 335.438 87.5666 335.106 88.8333 335.87C90.3999 336.801 94.2999 344.449 94.7333 345.313C94.7999 345.479 94.7666 345.679 94.5999 345.745C94.5333 345.812 94.4666 345.812 94.4333 345.812Z" fill="#472938"/>
<path d="M83.7669 343.716C83.6003 343.716 83.4669 343.617 83.4336 343.45C83.4003 343.284 82.9669 341.954 82.4669 340.392C80.4669 334.24 79.9336 332.511 79.9336 332.312C79.9336 332.112 80.0336 331.946 80.2669 331.78C80.7336 331.414 81.7336 331.015 82.5669 331.248C83.5336 331.514 85.6669 334.839 86.3003 335.836C86.4003 336.003 86.3336 336.202 86.2003 336.302C86.0336 336.402 85.8336 336.335 85.7336 336.202C84.5003 334.24 82.8669 332.046 82.4003 331.913C81.7336 331.713 80.8336 332.179 80.6336 332.378C80.8003 332.977 82.2336 337.499 83.1336 340.225C84.1336 343.317 84.1336 343.317 84.1336 343.384C84.1336 343.55 83.9669 343.716 83.7669 343.716C83.8003 343.716 83.8003 343.716 83.7669 343.716Z" fill="#472938"/>
<path d="M79.0669 343.251C78.9336 343.251 78.8002 343.151 78.7336 343.018C75.0669 329.286 75.2336 328.921 75.2669 328.788C75.5002 328.189 76.4336 327.757 77.6336 327.724H77.6669C78.9002 327.724 80.8002 330.683 81.3669 331.581C81.4669 331.747 81.4002 331.946 81.2669 332.046C81.1002 332.146 80.9002 332.079 80.8002 331.946C79.7669 330.251 78.2669 328.389 77.7002 328.389C76.7002 328.422 76.1002 328.788 75.9669 328.987C76.0336 329.852 78.0669 337.698 79.4336 342.819C79.4669 342.985 79.3669 343.185 79.2002 343.218C79.1002 343.218 79.0669 343.251 79.0669 343.251Z" fill="#472938"/>
<path d="M75.9997 328.822C75.9663 328.822 75.933 328.822 75.8997 328.822C75.733 328.788 75.5997 328.589 75.6663 328.423C76.033 327.026 74.5997 325.43 74.5663 325.397C74.433 325.264 74.4663 325.064 74.5997 324.931C74.733 324.798 74.933 324.832 75.0663 324.965C75.133 325.031 76.7663 326.86 76.2997 328.589C76.2663 328.722 76.133 328.822 75.9997 328.822Z" fill="#472938"/>
<path d="M78.2004 340.027C78.1004 340.027 78.0004 339.993 77.9337 339.894L74.9004 335.671L75.5337 330.384C75.5671 330.218 75.7337 330.085 75.9004 330.085C76.0671 330.118 76.2004 330.284 76.2004 330.451L75.6004 335.471L78.5004 339.495C78.6004 339.628 78.5671 339.86 78.4337 339.96C78.3337 340.027 78.2671 340.027 78.2004 340.027Z" fill="#472938"/>
<path d="M211.6 215.739L233.066 221.558C233.066 221.558 230.466 256.171 234.9 263.319C239.333 270.468 236.866 286.727 231.5 294.806C231.5 294.806 222.9 322.403 225.233 328.887C227.566 335.371 235.4 349.701 235.4 349.701C235.4 349.701 200.433 367.39 149.833 351.663C149.833 351.663 159.866 330.583 158.3 322.503C156.733 314.424 145.9 291.914 146.033 281.274C146.166 270.634 149.566 242.239 144.6 224.284L166.066 217.136C166.066 217.136 166.433 259.296 190.866 259.296C215.3 259.296 211.6 215.739 211.6 215.739Z" fill="#AB8DA8"/>
<path d="M231.533 294.807C231.533 294.807 228.866 300.127 211.933 302.354C211.933 302.354 228.233 303.584 226.599 313.36L231.533 294.807Z" fill="#543753"/>
<path d="M148.366 293.311C148.366 293.311 152.366 300.792 170.466 302.487C170.466 302.487 150.633 299.495 154.333 310.334L148.366 293.311Z" fill="#543753"/>
<path d="M146.133 283.135C145.967 283.135 145.8 283.002 145.8 282.836C145.767 282.271 145.733 281.772 145.767 281.273C145.8 278.879 146 275.621 146.2 271.831C146.5 266.644 146.867 260.193 146.967 253.577C146.967 253.377 147.1 253.244 147.3 253.244C147.5 253.244 147.633 253.41 147.633 253.577C147.533 260.193 147.167 266.677 146.867 271.864C146.633 275.654 146.467 278.913 146.433 281.307C146.433 281.772 146.433 282.271 146.467 282.803C146.467 282.936 146.333 283.102 146.133 283.135Z" fill="#472938"/>
<path d="M234.9 263.652C234.8 263.652 234.667 263.585 234.6 263.486C233.133 261.125 232.267 255.705 232.033 247.393C232.033 247.194 232.167 247.061 232.367 247.061C232.533 247.061 232.7 247.194 232.7 247.393C232.933 255.606 233.767 260.926 235.167 263.153C235.267 263.319 235.2 263.519 235.067 263.619C235.033 263.619 234.967 263.652 234.9 263.652Z" fill="#472938"/>
<path d="M151 349.202C151 349.202 169.833 356.351 191.866 355.586C213.9 354.822 258 338.928 278.6 342.187C299.2 345.445 297.866 354.19 297.166 358.213C296.466 362.236 253.7 422.584 216.133 422.584H158.566C158.566 422.584 87.8329 378.129 85.5329 365.295C83.2329 352.461 84.8996 344.78 104.633 344.415C124.366 344.049 145.7 347.474 151 349.202Z" fill="#3B2645"/>
<path d="M191.133 368.786C191.133 368.786 219.266 357.116 242.766 353.093C242.766 353.093 257.899 376.5 253.466 396.284C253.433 396.284 199.633 384.513 191.133 368.786Z" fill="#FFEDE5"/>
<path d="M191.133 368.786C191.133 368.786 259.199 377.664 253.433 396.283C247.666 414.903 191.133 368.786 191.133 368.786Z" fill="#E0855C"/>
<path d="M221.733 402.468C221.733 402.468 151.967 408.453 136.667 411.579C121.367 414.704 105.867 413.308 96.3999 416.599C86.9332 419.891 81.6999 422.418 80.5666 422.551C79.4332 422.684 76.8332 408.021 81.5999 402.834C81.5999 402.834 80.1332 397.547 86.7999 393.458C93.4666 389.368 104.533 394.754 108.633 393.458C112.733 392.161 115.667 390.964 120.033 391.895C124.4 392.826 135.067 395.453 135.067 395.453C135.067 395.453 190 360.641 221.733 402.468Z" fill="#FFEDE5"/>
<path d="M135.1 395.452L176.533 406.69L221.733 402.468C221.733 402.468 201.133 381.321 172.7 383.283C144.266 385.245 135.1 395.452 135.1 395.452Z" fill="#E0855C"/>
<path d="M149.533 353.658C149.533 353.658 170.933 357.981 201.866 374.14C232.8 390.299 258.4 383.682 267.433 386.808C276.466 389.933 293.6 387.506 296.4 389.933C299.2 392.361 301.033 396.616 299.366 398.445C299.366 398.445 306.833 415.535 306.133 416.666C305.433 417.796 302.833 417.697 301.6 417.431C300.366 417.165 289.5 411.778 277 409.55C264.5 407.323 230.033 402.535 202.566 401.138C175.1 399.742 135.1 396.982 135.1 396.982C135.1 396.982 136.033 363.367 149.533 353.658Z" fill="#FFEDE5"/>
<path d="M297.1 399.143C296.033 399.143 294.6 398.944 292.767 398.312C292.6 398.245 292.5 398.046 292.567 397.88C292.633 397.713 292.833 397.614 293 397.68C297.133 399.143 299.133 398.146 299.167 398.146C299.333 398.046 299.533 398.112 299.6 398.279C299.7 398.445 299.633 398.644 299.467 398.711C299.433 398.711 298.667 399.143 297.1 399.143Z" fill="#472938"/>
<path d="M84.9669 403.864C82.6336 403.864 81.5003 403.133 81.4336 403.099C81.2669 403 81.2336 402.8 81.3336 402.634C81.4336 402.468 81.6336 402.434 81.8003 402.534C81.8003 402.534 83.0003 403.266 85.3336 403.166C87.7669 403.099 90.4003 401.902 90.4336 401.902C90.6003 401.836 90.8003 401.902 90.8669 402.069C90.9336 402.235 90.8669 402.434 90.7003 402.501C90.6003 402.567 87.9003 403.731 85.3669 403.831C85.2336 403.864 85.1003 403.864 84.9669 403.864Z" fill="#472938"/>
</g>
<defs>
<linearGradient id="paint0_linear_28_9633" x1="375" y1="346.709" x2="-124.768" y2="307.845" gradientUnits="userSpaceOnUse">
<stop stop-color="#92A3FD"/>
<stop offset="1" stop-color="#9DCEFF"/>
</linearGradient>
<clipPath id="clip0_28_9633">
<rect width="375" height="422" fill="white" transform="translate(0 0.550781)"/>
</clipPath>
</defs>
</svg>
