<svg width="375" height="438" viewBox="0 0 375 438" fill="none" xmlns="http://www.w3.org/2000/svg">
<g clip-path="url(#clip0_28_9740)">
<path d="M0 208.652C0 208.652 22.4 212.191 45.1 294.489C67.8 376.787 130.8 437.551 212.967 437.551C295.133 437.551 375 323.068 375 248.616V-1.44922H0V208.652Z" fill="url(#paint0_linear_28_9740)"/>
<path d="M214.367 158.205L219.233 196.867L173.967 199.237V170.625L214.367 158.205Z" fill="#FFEDE5"/>
<path d="M173.967 189.488C173.967 189.488 202.267 203.544 210.267 159.474L173.967 170.625V189.488Z" fill="#E0855C"/>
<path d="M166.918 151.579C170.179 150.594 171.379 145.002 169.598 139.088C167.818 133.174 163.731 129.178 160.47 130.163C157.21 131.148 156.01 136.74 157.79 142.654C159.571 148.568 163.657 152.564 166.918 151.579Z" fill="#E0855C"/>
<path d="M161.866 124.151C161.866 124.151 162.733 185.115 189.166 187.051C215.6 188.987 217.7 139.842 217.866 124.151C218.033 108.459 201.333 103.952 186.4 104.119C171.466 104.286 162.566 111.965 161.866 124.151Z" fill="#FFEDE5"/>
<path d="M216.733 137.773C216.733 137.773 210 128.424 210.233 117.173C210.233 117.173 187.367 128.157 172.2 119.477C172.2 119.477 163.133 125.119 162.733 137.005L159.633 130.528C159.633 130.528 157.967 117.04 158.9 113.868C159.467 111.965 160.8 110.362 162.567 109.494C162.567 109.494 154.867 92.4337 173.667 85.6562C173.667 85.6562 173.733 89.7628 181.233 89.1952C188.733 88.6277 223.467 86.5243 220.7 105.087C220.667 105.054 228.4 117.173 216.733 137.773Z" fill="#3B2645"/>
<path d="M224.574 139.418C226.209 133.462 224.873 127.9 221.589 126.996C218.306 126.091 214.318 130.186 212.682 136.142C211.047 142.098 212.383 147.659 215.667 148.564C218.95 149.468 222.938 145.374 224.574 139.418Z" fill="#FFEDE5"/>
<path d="M216.734 141.879C216.7 141.879 216.634 141.879 216.6 141.845C216.434 141.779 216.367 141.578 216.434 141.411L219.367 135.335C219.434 135.168 219.634 135.101 219.8 135.168C219.967 135.235 220.034 135.435 219.967 135.602L217.034 141.679C216.967 141.812 216.867 141.879 216.734 141.879Z" fill="#472938"/>
<path d="M188.134 158.272C186.5 158.272 183.334 157.404 182.6 156.069C182.1 155.134 183.1 149.892 185.034 141.112C185.367 139.543 185.667 138.307 185.767 137.706C186.167 135.503 184.934 134.902 184.867 134.902C184.7 134.835 184.634 134.635 184.7 134.468C184.767 134.301 184.967 134.234 185.134 134.301C185.2 134.334 186.9 135.102 186.4 137.84C186.3 138.441 186.034 139.676 185.667 141.279C184.767 145.352 182.667 154.9 183.167 155.769C183.767 156.87 187.5 157.872 188.6 157.571C189.7 157.271 191.867 155.668 191.9 155.668C192.034 155.568 192.267 155.602 192.367 155.735C192.467 155.869 192.434 156.102 192.3 156.203C192.2 156.269 190 157.872 188.8 158.206C188.6 158.239 188.4 158.272 188.134 158.272Z" fill="#472938"/>
<path d="M188.799 168.088C185.799 168.088 183.466 167.353 183.433 167.353C183.266 167.286 183.166 167.119 183.233 166.919C183.299 166.752 183.466 166.652 183.666 166.719C183.766 166.752 195.099 170.258 199.366 161.41C199.433 161.243 199.633 161.177 199.799 161.243C199.966 161.31 200.033 161.51 199.966 161.677C197.399 166.919 192.566 168.088 188.799 168.088Z" fill="#472938"/>
<path d="M201.167 135.869C202.233 135.869 203.1 136.737 203.1 137.806V139.241C203.1 140.31 202.233 141.178 201.167 141.178C200.1 141.178 199.233 140.31 199.233 139.241V137.806C199.233 136.737 200.067 135.869 201.167 135.869Z" fill="#472938"/>
<path d="M175.134 137.205C176.2 137.105 177.134 137.873 177.234 138.941L177.367 140.377C177.467 141.445 176.7 142.38 175.634 142.48C174.567 142.58 173.634 141.812 173.534 140.744L173.4 139.308C173.3 138.24 174.067 137.305 175.134 137.205Z" fill="#472938"/>
<path d="M207.8 129.694C205.466 128.358 202.7 128.158 200.2 129.126C196.033 130.795 194.8 129.66 194.533 129.093C194.266 128.525 197.066 125.754 202.666 125.988C206.5 126.121 207.8 129.694 207.8 129.694Z" fill="#472938"/>
<path d="M167 132.764C169.067 131.062 171.8 130.427 174.4 130.962C178.8 131.93 179.8 130.628 179.967 130.027C180.133 129.426 176.933 127.156 171.433 128.257C167.7 129.059 167 132.764 167 132.764Z" fill="#472938"/>
<path d="M271.767 216.465L249.933 208.319C192.967 226.18 168.333 212.225 158.8 202.576C158.8 202.576 124.233 207.451 119.633 211.257C115.033 215.063 128.167 331.281 128.833 356.722C129.267 372.948 127.233 396.519 125.7 411.409C150.9 428.002 180.433 437.517 212.967 437.517C232.733 437.517 252.4 430.874 270.833 419.756C267.733 393.848 261.267 339.728 261 331.949C260.667 321.699 271.767 216.465 271.767 216.465Z" fill="#AB8DA8"/>
<path d="M173.966 199.238L158.8 202.576C168.333 212.225 192.966 226.181 249.967 208.352L219.233 196.867L173.966 199.238Z" fill="#FFEDE5"/>
<path d="M262.4 311.149C262.4 311.149 247.634 240.069 238.134 211.691C236.8 207.684 235.567 204.546 234.5 202.576L221.734 197.802C221.734 197.802 223.567 204.679 225.967 214.395C230.434 232.323 236.9 259.867 237.7 271.486H169.334V200.239L157.667 202.576C157.667 202.576 157.667 202.676 157.634 202.843C156.7 208.452 139.6 307.343 126.9 329.345C126.9 329.345 128.667 351.213 128.8 356.722C129.234 372.948 127.2 396.519 125.667 411.409C150.867 428.002 180.4 437.517 212.934 437.517C232.7 437.517 252.367 430.873 270.8 419.756C267.7 393.848 261.234 339.728 260.967 331.949C260.934 329.512 261.5 321.666 262.4 311.149Z" fill="#3B2645"/>
<path d="M126.433 323.569L137.7 274.892L123.333 288.413L126.433 323.569Z" fill="#543753"/>
<path d="M203.567 379.058C194.534 379.058 186.9 375.786 180.867 369.376C171.067 358.926 167.2 341.765 165.7 329.212C164.067 315.624 164.734 304.372 164.767 304.272L164.8 303.972H242.367L242.4 304.272C242.4 304.372 243.1 315.657 241.467 329.212C239.967 341.765 236.1 358.926 226.3 369.376C220.234 375.786 212.6 379.058 203.567 379.058ZM165.4 304.606C165.3 306.509 164.9 316.892 166.367 329.145C167.867 341.598 171.7 358.592 181.367 368.909C187.267 375.185 194.734 378.39 203.567 378.39C212.4 378.39 219.867 375.185 225.767 368.909C235.434 358.592 239.267 341.598 240.767 329.145C242.234 316.892 241.834 306.509 241.734 304.606H165.4Z" fill="white"/>
<path d="M119.6 211.257C119.6 211.257 106.366 221.974 75.8662 284.14L117.6 320.064L141.6 276.294C141.6 276.294 131.266 209.421 119.6 211.257Z" fill="#AB8DA8"/>
<path d="M126.1 407.336C126.1 407.336 144.466 415.85 147.333 414.681C150.2 413.512 146.666 389.341 145.766 389.074C144.866 388.806 128.9 376.554 125.7 377.321C123.466 377.856 121.4 385.034 121.4 385.034L87.2329 359.026L112.933 316.057L75.8663 284.14C75.8663 284.14 64.3329 304.439 55.0996 323.436C70.6329 360.361 94.9663 391.143 125.7 411.409L126.1 407.336Z" fill="#FFEDE5"/>
<path d="M75.8662 284.14L112.933 316.057L109.3 322.133L75.8662 284.14Z" fill="#E0855C"/>
<path d="M271.767 216.465C277.7 218.535 318.2 270.451 318.2 270.451L273.867 304.238C273.867 304.238 257.434 281.602 255.867 270.451C254.3 259.3 259.767 212.291 271.767 216.465Z" fill="#AB8DA8"/>
<path d="M318.233 270.484C318.233 270.484 361.533 331.715 363.367 345.037C365.2 358.358 359.733 372.914 323.467 372.681C287.2 372.447 255.767 368.674 247.533 370.243C239.3 371.813 220.933 372.848 217.8 371.946C214.667 371.045 203.833 345.037 204.367 341.498C204.9 337.959 210.367 335.889 210.367 335.889C210.367 335.889 208.833 333.552 209.267 331.315C209.7 329.078 228.7 333.719 232.867 334.186C237.033 334.653 246.133 344.97 248.467 345.504C250.8 346.038 307.667 337.324 307.667 337.324L275.9 302.702L318.233 270.484Z" fill="#FFEDE5"/>
<path d="M318.234 270.484L275.9 302.702L280.834 308.111L318.234 270.484Z" fill="#E0855C"/>
<path d="M307.667 337.324L329.2 333.551C329.2 333.551 318.9 333.017 317.2 312.317L307.667 337.324Z" fill="#E0855C"/>
<path d="M317.166 304.271H214.666C214.033 314.955 215 323.936 216.566 331.214C222.533 332.116 230.4 333.885 232.9 334.186C237.066 334.653 246.166 345.003 248.5 345.504C250.833 346.005 307.666 337.324 307.666 337.324C318.866 332.216 317.166 304.271 317.166 304.271Z" fill="#E3DCF7"/>
<path d="M238.533 334.987C231.866 331.715 216.566 331.248 216.566 331.248C222.533 332.149 230.4 333.919 232.9 334.219C237.066 334.687 246.166 345.037 248.5 345.537C249.533 345.771 260.8 344.235 273.266 342.466C254.333 344.402 245.166 338.226 238.533 334.987Z" fill="#3B2645"/>
<path d="M214.667 304.271C214.667 304.271 206.667 296.96 208.134 294.088C209.6 291.217 215.867 296.626 215.867 296.626C215.867 296.626 210.5 282.87 214.467 281.468C218.434 280.066 231.8 295.824 231.8 295.824C231.8 295.824 228.767 281.268 230.567 280.667C232.367 280.066 242.834 293.721 242.834 293.721C242.834 293.721 247 276.327 251.334 276.26C255.667 276.193 252.567 296.158 252.567 296.158C252.567 296.158 257.267 280.834 260.834 281.869C264.4 282.904 264.734 299.297 264.734 299.297C264.734 299.297 265.367 286.743 267.934 286.243C270.5 285.742 273.867 304.271 273.867 304.271H214.667Z" fill="#679E97"/>
<path d="M277.333 304.271C277.333 304.271 282.566 287.01 285.1 286.776C287.633 286.543 287.8 301.032 287.8 301.032C287.8 301.032 292.933 284.039 294.5 283.605C296.066 283.171 297.1 294.923 297.1 294.923C297.1 294.923 305.3 283.137 307.2 283.571C309.1 284.005 306.6 294.923 306.6 294.923C306.6 294.923 314.433 283.772 319.566 285.441C324.7 287.11 317.233 304.237 317.233 304.237L277.333 304.271Z" fill="#679E97"/>
<path d="M317.167 304.272C317.167 304.272 328.733 293.488 325.7 291.117C322.667 288.747 308.733 297.694 308.733 297.694C308.733 297.694 320.133 282.837 319.6 278.397C319.067 273.957 297.433 302.168 297.433 302.168C297.433 302.168 306.8 282.036 304.467 280.968C302.133 279.899 292.5 302.636 292.5 302.636C292.5 302.636 295.367 290.049 292.5 290.116C289.633 290.182 285.667 303.27 285.667 303.27C285.667 303.27 281.7 289.381 279 288.847C276.3 288.313 276.667 296.76 276.667 296.76C276.667 296.76 274.233 290.216 271.8 290.583C269.367 290.95 272.233 299.631 272.233 299.631C272.233 299.631 264.767 287.278 260.567 287.077C256.367 286.877 254.333 300.098 254.333 300.098C254.333 300.098 255.733 287.378 252.933 287.044C250.133 286.71 248.167 300.799 248.167 300.799C248.167 300.799 246.767 280.767 241.2 280.233C235.633 279.699 239.967 295.558 239.967 295.558C239.967 295.558 230.933 289.281 228.733 290.583C226.533 291.885 231.867 304.272 231.867 304.272H317.167Z" fill="#85CCC6"/>
<path d="M264.5 289.247C264.467 289.247 264.467 289.247 264.5 289.247C264.3 289.214 264.167 289.08 264.167 288.88L267.634 253.691C267.667 253.524 267.8 253.357 268 253.39C268.167 253.423 268.334 253.557 268.3 253.757L264.834 288.947C264.8 289.114 264.667 289.247 264.5 289.247Z" fill="#472938"/>
</g>
<defs>
<linearGradient id="paint0_linear_28_9740" x1="375" y1="437.551" x2="-125.603" y2="404.461" gradientUnits="userSpaceOnUse">
<stop stop-color="#92A3FD"/>
<stop offset="1" stop-color="#9DCEFF"/>
</linearGradient>
<clipPath id="clip0_28_9740">
<rect width="375" height="439" fill="white" transform="translate(0 -1.44922)"/>
</clipPath>
</defs>
</svg>
