<svg width="375" height="407" viewBox="0 0 375 407" fill="none" xmlns="http://www.w3.org/2000/svg">
<path d="M0 214.594C0 214.594 59.4333 90.9882 122.033 90.9882C184.633 90.9882 228.467 219.293 291.067 219.293C353.667 219.293 346.733 152.508 375 152.508V-39.4492H0V214.594Z" fill="url(#paint0_linear_28_9818)"/>
<path d="M164.566 172.67L147.366 178.169C147.366 178.169 142.133 198.364 143.766 201.963C145.399 205.563 154.599 208.295 158.966 206.129C163.333 203.963 178.133 189.799 178.133 189.799L164.566 172.67Z" fill="#FFEDE5"/>
<path d="M180.333 153.174C180.333 153.174 169.333 165.638 164.566 172.67L176.833 191.832L189.666 180.301C189.666 180.301 187.533 148.408 180.333 153.174Z" fill="#543753"/>
<path d="M162.6 173.303V192.499L168.133 178.235L164.566 172.67L162.6 173.303Z" fill="#E0855C"/>
<path d="M161.766 162.172C163.266 162.538 163.733 161.505 164.966 163.472C166.2 165.438 168.8 173.136 168.1 174.302C167.4 175.469 159.633 182.967 159.066 182.967C158.5 182.967 157.066 180.868 157.366 180.134C157.366 180.134 155.533 181.234 154.333 181.034C154.333 181.034 151.666 182.434 150.6 182.167C149.533 181.901 143.3 172.703 144.766 170.27C146.233 167.837 147.166 169.104 148.033 168.137C148.9 167.171 150.366 165.571 152.133 165.738C153.9 165.904 154.7 163.172 157.266 163.571C159.833 163.971 158.433 161.339 161.766 162.172Z" fill="#FFEDE5"/>
<path d="M157.332 180.467C157.199 180.467 157.099 180.401 157.032 180.301C156.932 180.134 156.999 179.934 157.166 179.868C157.199 179.868 160.199 178.268 160.999 177.102L161.066 177.035C161.099 177.035 162.799 175.502 163.366 174.335L160.466 167.77C160.399 167.604 160.466 167.404 160.632 167.337C160.799 167.27 160.999 167.337 161.066 167.504L164.066 174.335L163.999 174.469C163.499 175.735 161.766 177.301 161.499 177.535C160.566 178.834 157.566 180.401 157.432 180.467C157.432 180.434 157.399 180.467 157.332 180.467Z" fill="#472938"/>
<path d="M154.299 181.367C154.166 181.367 154.066 181.3 153.999 181.167L150.299 173.636C150.232 173.469 150.299 173.269 150.466 173.202C150.632 173.136 150.832 173.202 150.899 173.369L154.599 180.901C154.666 181.067 154.599 181.267 154.432 181.334C154.399 181.367 154.366 181.367 154.299 181.367Z" fill="#472938"/>
<path d="M159.299 179.301C159.166 179.301 159.066 179.235 158.999 179.102L155.532 171.637C155.466 171.47 155.532 171.27 155.699 171.203C155.866 171.137 156.066 171.203 156.132 171.37L159.599 178.835C159.666 179.002 159.599 179.201 159.432 179.268C159.399 179.301 159.332 179.301 159.299 179.301Z" fill="#472938"/>
<path d="M159.033 183.3C158.5 183.3 157.9 182.467 157.666 182.134C157.5 181.901 157.133 181.301 157 180.701C156.366 181.001 155.266 181.467 154.366 181.401C153.833 181.667 151.566 182.767 150.5 182.5C149.9 182.367 148.8 180.901 148.2 180.034C148.1 179.868 148.133 179.668 148.266 179.568C148.4 179.468 148.633 179.501 148.733 179.634C149.766 181.134 150.466 181.767 150.633 181.834C151.333 182.001 153.133 181.234 154.133 180.734L154.233 180.701H154.333C155.433 180.868 157.133 179.834 157.166 179.834L158.033 179.335L157.666 180.268C157.633 180.368 157.633 180.701 157.966 181.334C158.366 182.067 158.833 182.534 159.033 182.634C159.866 182.167 165.3 177.035 167.233 174.969C165.433 175.402 163.7 174.636 163.633 174.602C163.466 174.536 163.4 174.336 163.466 174.169C163.533 174.002 163.733 173.936 163.9 174.002C163.933 174.002 166.1 174.969 167.933 174.002C168.166 173.869 168.333 173.936 168.4 174.036C168.5 174.102 168.566 174.269 168.5 174.436C168.266 175.035 159.833 183.3 159.033 183.3Z" fill="#472938"/>
<path d="M218.033 133.146L234.733 143.643V165.405C234.733 165.405 217.366 201.53 218.033 214.561L178.266 221.992C178.266 221.992 168.733 183.734 180.333 153.141L198.066 140.677L218.033 133.146Z" fill="#AB8DA8"/>
<path d="M174.6 191.266C174.433 191.266 174.266 191.132 174.266 190.933C174.133 181.701 174.866 173.103 176.5 165.305C176.533 165.138 176.7 165.005 176.9 165.038C177.066 165.072 177.2 165.238 177.166 165.438C175.566 173.17 174.8 181.735 174.966 190.899C174.933 191.099 174.8 191.266 174.6 191.266Z" fill="#472938"/>
<path d="M234.733 165.438L221.699 163.472L228.999 178.235L234.733 165.438Z" fill="#543753"/>
<path d="M213.699 119.781L218.032 133.145C213.399 134.945 209.232 137.744 205.832 141.376C200.132 147.442 197.932 153.174 194.499 153.174C191.066 153.174 198.099 140.71 198.099 140.71L197.199 129.046L213.699 119.781Z" fill="#FFEDE5"/>
<path d="M197.633 134.978C197.633 134.978 205.266 133.845 209.166 122.881L197.166 129.046L197.633 134.978Z" fill="#E0855C"/>
<path d="M191.966 92.4873C191.966 92.4873 184.599 128.413 188.433 130.879C192.266 133.345 207.399 131.212 213.033 121.214C218.666 111.216 211.599 92.4873 191.966 92.4873Z" fill="#FFEDE5"/>
<path d="M189.599 105.252C189.599 105.252 182.666 114.217 183.366 115.083C184.066 115.95 187.866 117.183 187.866 117.183L189.599 105.252Z" fill="#FFEDE5"/>
<path d="M210.4 115.783C210.4 115.783 206.933 114.05 209.166 106.485C209.166 106.485 204.666 98.5197 201.733 97.22C198.8 95.9203 191.333 95.5204 191.333 95.5204C191.333 95.5204 189.833 85.0228 192.333 83.923C194.833 82.8233 217.966 83.4565 222.333 91.6213C223.8 94.3873 222.866 96.0536 222.866 96.0536C222.866 96.0536 225.333 99.3196 224.9 102.119C224.466 104.918 217.666 115.283 217.666 115.283L210.4 115.783Z" fill="#3B2645"/>
<path d="M217.318 118.514C219.635 116.197 220.289 113.095 218.779 111.586C217.269 110.076 214.167 110.73 211.85 113.047C209.533 115.363 208.878 118.465 210.388 119.975C211.898 121.484 215.001 120.83 217.318 118.514Z" fill="#FFEDE5"/>
<path d="M191.366 122.948C189.799 122.948 188.399 122.515 188.299 122.481C188.132 122.415 188.032 122.248 188.099 122.048C188.166 121.881 188.332 121.781 188.532 121.848C188.566 121.848 193.099 123.314 194.666 120.915C194.766 120.748 194.966 120.715 195.132 120.815C195.299 120.915 195.332 121.115 195.232 121.282C194.332 122.581 192.799 122.948 191.366 122.948Z" fill="#472938"/>
<path d="M212.166 117.316C212.066 117.316 211.932 117.249 211.899 117.149C211.799 116.983 211.832 116.783 211.999 116.683L214.699 114.983C214.866 114.883 215.066 114.916 215.166 115.083C215.266 115.25 215.232 115.45 215.066 115.55L212.366 117.249C212.299 117.283 212.232 117.316 212.166 117.316Z" fill="#472938"/>
<path d="M194.2 105.285C194.9 105.451 195.333 106.151 195.166 106.818L194.966 107.717C194.8 108.417 194.1 108.851 193.433 108.684C192.733 108.517 192.3 107.817 192.466 107.151L192.666 106.251C192.833 105.551 193.5 105.118 194.2 105.285Z" fill="#3B2645"/>
<path d="M192.799 101.786C192.799 101.786 197.199 101.486 198.333 105.085C198.333 105.085 198.199 101.319 195.433 100.753C192.666 100.186 191.766 101.619 192.799 101.786Z" fill="#3B2645"/>
<path d="M223.967 136.878C209 134.345 218.933 165.905 218.933 165.905L241.333 172.67L249.633 147.176C236.6 141.444 223.967 136.878 223.967 136.878Z" fill="#AB8DA8"/>
<path d="M244.834 211.461C244.834 211.461 236.934 214.227 236.167 215.46C235.4 216.694 236.134 221.059 236.134 221.059C235.3 222.392 234.634 223.792 234.167 225.292C233.5 227.524 235.167 226.858 237.134 229.124C239.1 231.39 240.7 230.824 241.834 231.857C242.967 232.89 245.267 232.557 246.167 232.99C247.067 233.423 248.767 234.889 249.8 234.823C250.834 234.756 253.267 231.224 255.267 226.791C257.267 222.359 256.9 218.76 257.8 213.428C258.7 208.095 279.734 173.803 277.267 164.505C276.034 159.873 262.634 152.941 249.6 147.176L241.3 172.67L253.167 176.269L244.834 211.461Z" fill="#FFEDE5"/>
<path d="M256.733 177.536C256.7 177.536 256.666 177.536 256.633 177.536L253.066 176.569C252.9 176.536 252.766 176.336 252.833 176.169C252.866 176.003 253.066 175.903 253.233 175.936L256.8 176.903C256.966 176.936 257.1 177.136 257.033 177.302C257.033 177.436 256.9 177.536 256.733 177.536Z" fill="#472938"/>
<path d="M283.833 296.941L296.8 290.443C296.8 290.443 296.5 287.91 299.1 285.044C301.7 282.178 299.766 275.546 297.333 274.48C294.9 273.413 293.7 274.146 291.6 270.714L272.833 278.845L283.833 296.941Z" fill="#FFEDE5"/>
<path d="M297.3 274.48C299.733 275.547 301.633 282.179 299.066 285.045C296.5 287.911 296.766 290.443 296.766 290.443C307.866 291.943 318.3 308.206 320.266 310.039C322.233 311.872 330.2 310.572 330.433 309.206C330.666 307.839 313.366 262.216 311.766 261.217C310.166 260.217 291.566 270.714 291.566 270.714C293.666 274.147 294.866 273.414 297.3 274.48Z" fill="#AB8DA8"/>
<path d="M330.432 309.206C330.632 307.84 313.366 262.216 311.766 261.217C311.366 260.95 309.899 261.417 307.966 262.25C312.566 271.381 324.299 302.841 327.199 310.639C328.932 310.306 330.332 309.772 330.432 309.206Z" fill="#E5E5E5"/>
<path d="M183.866 248.753C183.866 248.753 213.6 326.735 226.133 327.768C238.666 328.801 289.533 294.642 289.533 294.642L280.066 275.68L237.1 289.843L226.4 240.888L183.866 248.753Z" fill="#3B2645"/>
<g opacity="0.5">
<path opacity="0.5" d="M226.4 240.921L183.866 248.752C183.866 248.752 191.5 268.748 200.633 288.61L229.933 257.251L226.4 240.921Z" fill="#3B2645"/>
</g>
<path d="M105.732 361.228L99.999 374.525C99.999 374.525 101.866 376.291 101.732 380.123C101.599 383.956 107.332 387.822 109.899 387.055C112.466 386.289 112.899 384.956 116.732 386.255L125.866 367.926L105.732 361.228Z" fill="#FFEDE5"/>
<path d="M103.732 365.86C103.732 365.86 111.599 374.091 121.899 375.824L125.832 367.926L105.732 361.194L103.732 365.86Z" fill="#E0855C"/>
<path d="M218.033 214.594C218.033 214.594 235.433 234.756 226.366 250.752C217.299 266.749 163.266 296.142 159.599 305.173C155.933 314.205 153.866 324.636 146.366 337.166C138.866 349.697 126.899 371.792 126.899 371.792C126.899 371.792 108.799 371.092 102.899 363.26C102.899 363.26 132.099 289.377 139.066 279.812C146.033 270.248 178.899 229.724 178.899 229.724L178.233 222.025L218.033 214.594Z" fill="#3B2645"/>
<path d="M118.666 369.159C118.632 369.159 118.632 369.159 118.599 369.159C118.532 369.126 118.466 369.026 118.532 368.926C118.866 368.226 151.033 299.708 157.466 291.71C159.833 288.744 166.799 281.779 174.833 273.714C188.599 259.917 205.699 242.754 207.999 237.489C211.599 229.291 209.199 217.76 209.166 217.627C209.133 217.527 209.199 217.46 209.299 217.427C209.399 217.393 209.466 217.46 209.499 217.56C209.533 217.66 211.933 229.324 208.299 237.622C205.966 242.921 188.833 260.117 175.066 273.947C167.033 282.012 160.099 288.944 157.733 291.91C151.333 299.875 119.166 368.359 118.866 369.059C118.799 369.126 118.732 369.159 118.666 369.159Z" fill="white"/>
<path d="M114.099 368.126C114.066 368.126 114.066 368.126 114.033 368.126C113.966 368.093 113.899 367.993 113.966 367.893C114.299 367.193 147.666 296.609 151.533 290.677C153.499 287.644 165.233 275.247 176.566 263.283C187.766 251.452 199.366 239.188 201.599 235.922C206.066 229.391 205.133 218.793 205.133 218.693C205.133 218.593 205.199 218.526 205.299 218.526C205.399 218.526 205.466 218.593 205.466 218.693C205.466 218.793 206.433 229.524 201.866 236.156C199.599 239.455 187.999 251.719 176.799 263.583C165.466 275.547 153.766 287.944 151.799 290.943C147.966 296.875 114.566 367.426 114.233 368.126C114.233 368.093 114.166 368.126 114.099 368.126Z" fill="white"/>
<path d="M109.866 387.088C107.333 387.821 101.566 383.989 101.699 380.156C101.833 376.324 99.9661 374.558 99.9661 374.558C90.4995 380.556 72.0661 374.824 69.3661 374.691C66.6661 374.558 61.3995 380.69 62.1328 381.856C62.8661 383.022 105.433 406.817 107.333 406.584C109.233 406.35 116.666 386.322 116.666 386.322C112.866 384.989 112.433 386.355 109.866 387.088Z" fill="#AB8DA8"/>
<path d="M62.166 381.856C62.866 383.023 105.466 406.818 107.366 406.584C107.833 406.518 108.666 405.251 109.599 403.352C100.199 399.319 70.9327 382.79 63.7327 378.69C62.5994 380.023 61.866 381.357 62.166 381.856Z" fill="#E5E5E5"/>
<g opacity="0.5">
<path opacity="0.5" d="M178.899 229.724C178.899 229.724 198.666 227.258 198.466 227.324C198.266 227.391 178.633 226.458 178.633 226.458L178.899 229.724Z" fill="#3B2645"/>
</g>
<defs>
<linearGradient id="paint0_linear_28_9818" x1="375" y1="219.293" x2="-121.545" y2="163.605" gradientUnits="userSpaceOnUse">
<stop stop-color="#92A3FD"/>
<stop offset="1" stop-color="#9DCEFF"/>
</linearGradient>
</defs>
</svg>
