<svg width="12" height="11" viewBox="0 0 12 11" fill="none" xmlns="http://www.w3.org/2000/svg">
<path d="M1.35801 4.8576H8.98161L6.64825 2.055C6.53914 1.92373 6.48665 1.75449 6.50232 1.58452C6.51799 1.41454 6.60054 1.25776 6.73181 1.14865C6.86308 1.03954 7.03232 0.987049 7.20229 1.00272C7.37226 1.01839 7.52905 1.10094 7.63816 1.23221L10.8522 5.08901C10.8738 5.11969 10.8931 5.15191 10.91 5.18543C10.91 5.21757 10.91 5.23685 10.955 5.26899C10.9841 5.3427 10.9994 5.42115 11 5.5004C10.9994 5.57965 10.9841 5.65811 10.955 5.73181C10.955 5.76395 10.955 5.78323 10.91 5.81537C10.8931 5.84889 10.8738 5.88112 10.8522 5.91179L7.63816 9.76859C7.57772 9.84115 7.50204 9.89951 7.41649 9.9395C7.33095 9.9795 7.23764 10.0002 7.1432 10C6.99301 10.0003 6.84746 9.94798 6.73181 9.85215C6.66672 9.79819 6.61292 9.73192 6.57348 9.65713C6.53404 9.58234 6.50975 9.50051 6.50199 9.41632C6.49422 9.33213 6.50315 9.24723 6.52825 9.16649C6.55334 9.08576 6.59412 9.01076 6.64825 8.94581L8.98161 6.1432H1.35801C1.18753 6.1432 1.02403 6.07548 0.903479 5.95493C0.78293 5.83438 0.715207 5.67088 0.715207 5.5004C0.715207 5.32992 0.78293 5.16642 0.903479 5.04587C1.02403 4.92533 1.18753 4.8576 1.35801 4.8576Z" fill="#FAFBFF" stroke="white" stroke-width="0.4"/>
</svg>
