<svg width="8" height="22" viewBox="0 0 8 22" fill="none" xmlns="http://www.w3.org/2000/svg">
<path fill-rule="evenodd" clip-rule="evenodd" d="M7.53063 17.2194C7.67146 17.3601 7.75059 17.5509 7.75059 17.75C7.75059 17.9491 7.67146 18.1399 7.53063 18.2806L4.53063 21.2806C4.38995 21.4215 4.19906 21.5006 4 21.5006C3.80094 21.5006 3.61005 21.4215 3.46937 21.2806L0.469375 18.2806C0.176318 17.9876 0.176318 17.5124 0.469375 17.2194C0.762431 16.9263 1.23757 16.9263 1.53063 17.2194L3.25 18.9397V3.06031L1.53063 4.78062C1.23757 5.07368 0.762431 5.07368 0.469375 4.78062C0.176318 4.48757 0.176318 4.01243 0.469375 3.71938L3.46937 0.719375C3.61005 0.578542 3.80094 0.49941 4 0.49941C4.19906 0.49941 4.38995 0.578542 4.53063 0.719375L7.53063 3.71938C7.82368 4.01243 7.82368 4.48757 7.53063 4.78062C7.23757 5.07368 6.76243 5.07368 6.46937 4.78062L4.75 3.06031V18.9397L6.46937 17.2194C6.61005 17.0785 6.80094 16.9994 7 16.9994C7.19906 16.9994 7.38995 17.0785 7.53063 17.2194Z" fill="#0D121C"/>
</svg>
